<svg id="Layer_1" data-name="Layer 1" xmlns="http://www.w3.org/2000/svg" viewBox="0 0 143.68 235.2"><defs><style>.cls-1{fill:#39c9ea;}.cls-2{fill:#f9a806;}.cls-3{fill:#5436e8;}</style></defs><path class="cls-1" d="M199.84,82H164.13a36,36,0,0,0-23.72-33.89l.34.29L127.18,82,113.73,48.72A36.45,36.45,0,0,0,91.88,81.64V82H56.17C55.94,68,60,54.56,68.43,42,80.24,24.42,97,13.86,118.1,10.91a9.57,9.57,0,0,1,1.19-.11l7.89,19.53,8.06-19.93c13.85,1.25,26.68,6.64,38.2,16C187.69,38,196.15,53.09,199,71.31A67.69,67.69,0,0,1,199.84,82Z" transform="translate(-56.16 -10.4)"/><path class="cls-1" d="M154.78,205.31c-5.12,9.75-18.28,30-24,38.79a3.27,3.27,0,0,1-5.5,0c-5.74-8.76-18.91-29.06-24-38.79Z" transform="translate(-56.16 -10.4)"/><polygon class="cls-2" points="140.78 88.92 104.26 181.25 94.27 181.25 71.02 122.46 84.29 88.92 140.78 88.92"/><polygon class="cls-3" points="71.02 122.46 47.76 181.25 37.78 181.25 1.25 88.92 57.75 88.92 71.02 122.46"/></svg>